<svg id="Layer_1" data-name="Layer 1" xmlns="http://www.w3.org/2000/svg" viewBox="0 0 212.31 59.08"><defs><style>.cls-1{fill:#fff;fill-rule:evenodd;}</style></defs><path class="cls-1" d="M160.77,36.35a28,28,0,0,0-.17,4.74c0,.54-.14.66-.65.65-1.8,0-3.59,0-5.39,0-.57,0-.72-.19-.69-.72s0-1.27,0-2c-2.94,3.21-6.6,3.06-10.29,2.64a7.87,7.87,0,0,1-4.69-1.82c-2.12-2-2.41-4.52-2.11-7.2s2.2-4.17,4.7-4.81a38.28,38.28,0,0,1,7.85-.7c1.26-.05,2.52-.12,3.78-.14.48,0,.54-.22.51-.62a3.57,3.57,0,0,0-3.09-3.55,6.76,6.76,0,0,0-3.57.11,2.66,2.66,0,0,0-1.88,2,.66.66,0,0,1-.78.62c-2,0-4.08,0-6.13,0a6.57,6.57,0,0,1,4.59-5.93,18.05,18.05,0,0,1,7.85-.94,18.64,18.64,0,0,1,5,.94,7.13,7.13,0,0,1,5,7c0,1.91.08,3.81,0,5.72,0,.69.22.83.85.82,1.6,0,3.2.06,4.79,0a.73.73,0,0,1,.82.6c.8,2.3,1.46,2.79,3.93,2.85,1.32,0,2.64,0,4,0a2.22,2.22,0,0,0,2.36-1.85,1.43,1.43,0,0,0-.9-1.69c-1.74-.78-3.61-.68-5.44-.83a16.8,16.8,0,0,1-6.56-1.92c-2.33-1.23-3.12-3.27-3.05-5.8a5.76,5.76,0,0,1,3.79-5.63,19.93,19.93,0,0,1,14.82,0,5.63,5.63,0,0,1,3.49,6.12c0,.39-.17.53-.56.51-1.79-.06-3.59-.11-5.38-.14-.3,0-.45-.08-.46-.42a5.54,5.54,0,0,0-.17-1c-.3-1.29-.73-1.66-2-1.84a13.11,13.11,0,0,0-4.59,0,4.43,4.43,0,0,0-.95.32c-1,.46-1.33,1-1.2,1.8A2,2,0,0,0,170,25.63c2.43.38,4.88.61,7.29,1.15a18,18,0,0,1,3.71,1.3c2.84,1.34,3.82,3.25,3.46,6.38s-2.2,4.74-4.84,5.77a21.13,21.13,0,0,1-8.36,1.05,20.6,20.6,0,0,1-5.06-.66C163.78,40,161.8,38.8,160.77,36.35Zm-10-5.24v0c-.61,0-1.23,0-1.85,0a9.87,9.87,0,0,0-3.68.71,2.81,2.81,0,0,0-.58,4.78,6.35,6.35,0,0,0,7.35-.41c1.37-1.29,1.6-2.94,1.65-4.68,0-.41-.22-.44-.53-.44Z" transform="translate(-0.51 -0.84)"/><path class="cls-1" d="M56.8,22a8.8,8.8,0,0,1,5.47-3.4l.16-.05a4.93,4.93,0,0,1,2.65.1c1,.51.24,1.6.44,2.4a4.7,4.7,0,0,1,0,1,12.32,12.32,0,0,1,9.18-3.53c3.46.05,6.57,1.06,8.89,4A15.05,15.05,0,0,0,83.68,20c0-.44.08-.66.59-.66,1.62,0,3.25-.07,4.87-.16.67,0,.77.24.77.83q0,9.76,0,19.52a11.35,11.35,0,0,1-.75,4.52,8.6,8.6,0,0,1-6,5.36,24.9,24.9,0,0,1-12,.18,9.63,9.63,0,0,1-6.07-3.78A7.22,7.22,0,0,1,64,42.61c-.06-.46,0-.7.6-.73,1.85-.08,3.69-.1,5.54-.12a.84.84,0,0,1,1,.65c.8,2.31,2.16,3.22,4.62,3.24A11.49,11.49,0,0,0,80.23,45a4.27,4.27,0,0,0,2.9-3.69,37.74,37.74,0,0,0,0-4A9.21,9.21,0,0,1,80,39.87c-4.59,2.28-11.27.87-14.5-3.1a9.72,9.72,0,0,1-2-5.6,14.39,14.39,0,0,1,.89-7.08c.25-.56-.12-.56-.48-.54-4.81.36-6.56,2.09-7,6.49-.33,3.44-.1,6.89-.13,10.34,0,.65-.17.87-.85.85-1.71,0-3.42,0-5.13,0-.6,0-.83-.13-.82-.79q0-10.3,0-20.61c0-.61.14-.83.79-.81,1.68,0,3.36,0,5.05,0,.64,0,.85.19.78.81A7.82,7.82,0,0,0,56.8,22ZM71,30.58a5.09,5.09,0,0,0,3,4.75c2.43,1.35,6.61,1.13,8.26-2.13A9.16,9.16,0,0,0,83,29.46a6.25,6.25,0,0,0-.77-3.56c-1.79-3.09-6.28-3-8.36-1.66S71.07,27.76,71,30.58Z" transform="translate(-0.51 -0.84)"/><path class="cls-1" d="M25.91,25.27a1.12,1.12,0,0,0,.33-.77,6.32,6.32,0,0,1,4.17-4.8,18.77,18.77,0,0,1,13.77.16,6.63,6.63,0,0,1,4.31,6.53c.09,4.9,0,9.81,0,14.71,0,.46-.1.65-.6.65-1.82,0-3.64,0-5.47,0-.54,0-.67-.21-.66-.69s0-1.23,0-1.88c-.11,0-.22,0-.25,0a7.19,7.19,0,0,1-5,2.48,17.73,17.73,0,0,1-7.38-.58,6.15,6.15,0,0,1-4-3.76c-.08-.18-.15-.36-.26-.64-1.79,4.15-5.53,4.8-9.27,5.34a15.59,15.59,0,0,1-8.4-1A10.26,10.26,0,0,1,.56,31.7,12.14,12.14,0,0,1,2,24.24a11.11,11.11,0,0,1,8.42-5.34,23,23,0,0,1,8.26.31,9.57,9.57,0,0,1,6.93,5.57A4.91,4.91,0,0,0,25.91,25.27ZM22,33.2c.67,0,1.35,0,2,0s.72-.19.76-.65a4.71,4.71,0,0,1,.45-1.69,6,6,0,0,1,4.29-3.07,40.46,40.46,0,0,1,7.84-.69L41.08,27c.27,0,.49,0,.51-.39a4,4,0,0,0-2-3.43,6.63,6.63,0,0,0-3-.52c-1.64.11-3.11.57-3.56,2.46-.09.35-.34.35-.64.39-1.56.19-3.14,0-4.7.13-.55,0-1.39-.44-1.6.61,0,.06-.3.07-.47.09-1.84.24-3.69.06-5.53.2-.47,0-.63-.08-.78-.48a3.31,3.31,0,0,0-1.62-1.85,7.69,7.69,0,0,0-4.24-.75,5.86,5.86,0,0,0-5.26,4.14,10.24,10.24,0,0,0-.39,2.9,6.21,6.21,0,0,0,2.7,5.71,6.84,6.84,0,0,0,4.45.76c2.38-.16,3.43-.86,4.23-3.11a.76.76,0,0,1,.84-.62C20.61,33.22,21.29,33.2,22,33.2Zm13.76,4.37a5.27,5.27,0,0,0,5-2.36,8.18,8.18,0,0,0,.84-3.71c.05-.43-.33-.38-.6-.38-1.34,0-2.69,0-4,0a10.78,10.78,0,0,0-3.47.56,2.78,2.78,0,0,0-2,2.64,2.75,2.75,0,0,0,1.81,2.76A4.9,4.9,0,0,0,35.72,37.57Z" transform="translate(-0.51 -0.84)"/><path class="cls-1" d="M191.51,22c2.3-2,4.66-3.43,7.54-3.66,4-.31,9.7,1.25,10.76,7.3a13.08,13.08,0,0,1,.21,2.25c0,4.18,0,8.36,0,12.54,0,.64-.13.85-.82.85-1.77,0-3.53,0-5.29.13-.66,0-.65-.29-.65-.75q0-5.31,0-10.6a6.9,6.9,0,0,0-1.22-4.36c-1.9-2.5-5.44-2.72-8.19-.69-1.66,1.24-2,2.89-2,4.73,0,3.7,0,7.4,0,11.1,0,.64-.15.81-.78.79-1.85,0-3.71,0-5.56,0-.45,0-.62-.09-.62-.59,0-7.54.07-15.08.1-22.62,0-2.66,0-5.33,0-8,0-.62.13-.82.78-.8,1.59.05,3.19.06,4.79,0,.71,0,1,.13.94.9,0,3.51,0,7,0,10.52Z" transform="translate(-0.51 -0.84)"/><path class="cls-1" d="M111.65,19.73q0-6.21,0-12.44a12.39,12.39,0,0,1,.13-1.92A4.8,4.8,0,0,1,116.17,1,42.28,42.28,0,0,1,123.8,1c1.46.06,2.91.18,4.36.24.61,0,.9.22.92.87,0,1.09.11,2.18.22,3.27.06.55-.1.72-.67.67-2.65-.24-5.31-.16-8-.17-1.61,0-2.17.56-2.15,2.18,0,2.91.12,5.82.12,8.74,0,.71.25.89.9.9,2.55,0,5.1.14,7.64.16.65,0,.87.17.84.84,0,1.51,0,3,0,4.54,0,.49-.11.69-.65.67-2.71-.1-5.43-.15-8.14-.27-.59,0-.55.27-.55.65v10c0,2,0,4.09,0,6.14,0,.5-.12.66-.64.67-2,0-4,.16-6,.25-.67,0-.31-.52-.46-.78Q111.65,30.14,111.65,19.73Z" transform="translate(-0.51 -0.84)"/><path class="cls-1" d="M111.65,19.73q0,10.43,0,20.84a19.16,19.16,0,0,1-14.41,0A10.88,10.88,0,0,1,90.4,28.67c.71-4.81,4.07-8.41,9.19-9.61a20.22,20.22,0,0,1,11.65.6A1.85,1.85,0,0,0,111.65,19.73Zm-.84,10.77a6.36,6.36,0,0,0-7.22-6.95,5.73,5.73,0,0,0-5.45,4.53,9.59,9.59,0,0,0-.2,3c.33,3.71,1.78,5.36,5.43,5.85C107.82,37.51,111,34.45,110.81,30.5Z" transform="translate(-0.51 -0.84)"/><path class="cls-1" d="M129.58,25.77c0-5,0-10,0-15,0-.8.24-1,1-1,1.74.05,3.48,0,5.21,0,.56,0,.77.1.77.72q0,15.26,0,30.51c0,.58-.18.71-.72.7-1.82,0-3.64,0-5.46,0-.66,0-.77-.22-.77-.81C129.59,35.86,129.58,30.82,129.58,25.77Z" transform="translate(-0.51 -0.84)"/><path class="cls-1" d="M178.83,56.74a3.28,3.28,0,0,1-2.15.59c-1.49-.18-2.19-1-2.35-3-.2-2.34,1.31-3.92,3.36-3.68a5.51,5.51,0,0,0,1.94.15c.34-.07.51.12.5.48,0,2,.07,4,0,6.06A2.7,2.7,0,0,1,177,59.92c-.5,0-1-.13-1.5-.19s-.67-.53-.59-1,.49-.24.78-.19a11.33,11.33,0,0,0,1.41.18C178.43,58.76,179,58.12,178.83,56.74Zm.09-2.91c0-.45,0-.89,0-1.34a.45.45,0,0,0-.4-.53,3.53,3.53,0,0,0-1.48-.14c-1,.23-1.51,1-1.45,2.56,0,1.2.62,1.85,1.62,1.81,1.24,0,1.71-.52,1.71-1.77Z" transform="translate(-0.51 -0.84)"/><path class="cls-1" d="M159.89,54.87c0,.62,0,1.23,0,1.85,0,.23.11.56-.2.66s-.82.2-.95,0c-.3-.59-.57-.18-.83-.06-1.47.66-2.84.35-3.45-.82a2.1,2.1,0,0,1,1-2.91,9.32,9.32,0,0,1,2.44-.52c.26-.06.69.18.7-.34a.77.77,0,0,0-.72-.8,5.61,5.61,0,0,0-2.08.07c-.3.06-.81.61-1-.14s.14-1,.82-1a7,7,0,0,1,2.5,0,2.06,2.06,0,0,1,1.81,2.17C159.91,53.58,159.89,54.23,159.89,54.87Zm-1.27,0c-.1-.15.36-.75-.31-.77a4.47,4.47,0,0,0-2.19.39,1.06,1.06,0,0,0-.3,1.68,1.92,1.92,0,0,0,1.91.09C158.26,56,158.86,55.79,158.62,54.85Z" transform="translate(-0.51 -0.84)"/><path class="cls-1" d="M151.46,54.35c-.61,0-1.23,0-1.84,0-.44,0-.54.22-.46.59a1.7,1.7,0,0,0,1.45,1.44,3.89,3.89,0,0,0,2.37-.31c.21-.1.51-.54.66-.15s.31.88-.21,1.2a4.57,4.57,0,0,1-4.47-.22A3.68,3.68,0,0,1,148,53a3,3,0,0,1,2.91-2.33c2.15-.07,2.94,1.36,3,3.13,0,.4-.17.56-.55.56h-1.85Zm-.58-1a11.39,11.39,0,0,1,1.17,0c.6.06.57-.26.44-.66a1.43,1.43,0,0,0-1.63-1,1.81,1.81,0,0,0-1.68,1.17c-.06.3,0,.49.36.48S150.43,53.35,150.88,53.35Z" transform="translate(-0.51 -0.84)"/><path class="cls-1" d="M196.3,54.56c0,.62,0,1.23,0,1.85s-.62,1-1,.62-.67-.13-1,0c-1.87.81-3.64-.26-3.44-2.08A2.29,2.29,0,0,1,193.11,53c.47-.07.94-.1,1.41-.17.2,0,.49.09.55-.23a.68.68,0,0,0-.36-.71,3.2,3.2,0,0,0-2.05-.16,3.62,3.62,0,0,0-.56.17c-.29.08-.65.29-.69-.23,0-.35-.18-.78.43-.91a7.27,7.27,0,0,1,2.9-.08,1.85,1.85,0,0,1,1.55,1.92,1,1,0,0,1,0,.17Zm-1.21.33c0-1.06,0-1.12-1-1a3.72,3.72,0,0,0-1.38.33,1,1,0,0,0-.31,1.57,1.58,1.58,0,0,0,1.81.18C194.68,55.8,195.27,55.59,195.09,54.89Z" transform="translate(-0.51 -0.84)"/><path class="cls-1" d="M210.33,54.18c-.5,0-1,0-1.51,0-.68,0-.69.35-.52.79a1.93,1.93,0,0,0,1.84,1.24,4,4,0,0,0,1.78-.4c.19-.08.5-.53.65,0,.1.32.25.83-.23,1a4.33,4.33,0,0,1-3.89.05,3,3,0,0,1-1.54-3,3.11,3.11,0,0,1,4-3.23,2.83,2.83,0,0,1,1.9,3.16c-.1.32-.32.35-.58.35Zm-.45-1c.39,0,.79,0,1.18,0s.56-.18.41-.6a1.36,1.36,0,0,0-1.16-1,1.78,1.78,0,0,0-1.68.53c-.22.24-.51.54-.35.89s.5.11.76.13A7.85,7.85,0,0,0,209.88,53.17Z" transform="translate(-0.51 -0.84)"/><path class="cls-1" d="M167.83,54.09c0-.84,0-1.68,0-2.52,0-.26-.13-.63.25-.71s.77-.2.94.11.47.2.72.07a3.3,3.3,0,0,1,1.44-.39,2,2,0,0,1,2.2,1.94c.07,1.45,0,2.91,0,4.37,0,.45-.25.48-.59.48s-.66,0-.65-.52c0-1.14,0-2.29,0-3.44,0-.61,0-1.31-.73-1.55a2.25,2.25,0,0,0-2.11.51c-.27.21-.19.51-.19.79,0,1.17,0,2.35,0,3.52,0,.49-.13.7-.66.7s-.7-.15-.68-.67C167.85,55.88,167.83,55,167.83,54.09Z" transform="translate(-0.51 -0.84)"/><path class="cls-1" d="M205.86,53.91c0,.84,0,1.68,0,2.52,0,.23.11.56-.24.63s-.77.17-.86-.06c-.24-.62-.5-.19-.73-.08-1.95,1-3.51.06-3.56-2.11,0-1.15,0-2.3,0-3.45,0-.46.15-.66.63-.66s.61.24.6.68c0,1.12,0,2.24,0,3.36,0,.54.08,1.09.7,1.3a2.59,2.59,0,0,0,2.18-.6,1.39,1.39,0,0,0,.08-.65c0-1.1,0-2.19,0-3.28,0-.44-.06-.84.61-.82s.61.43.61.86C205.86,52.34,205.86,53.12,205.86,53.91Z" transform="translate(-0.51 -0.84)"/><path class="cls-1" d="M137.84,54.14A3.29,3.29,0,0,1,142.76,51c.64.3.51.83.43,1.29s-.35.12-.51,0a3.17,3.17,0,0,0-1.75-.51,1.65,1.65,0,0,0-1.68,1.24,3.22,3.22,0,0,0-.17,1.23,2,2,0,0,0,3.07,1.91c.08,0,.15-.1.23-.11.28,0,.58-.63.8-.15a.9.9,0,0,1-.42,1.28C140.36,58.24,137.68,57.12,137.84,54.14Z" transform="translate(-0.51 -0.84)"/><path class="cls-1" d="M163.89,56.4c.24.09.71-.35.78.34s-.27.71-.71.8a2,2,0,0,1-2.72-2.16c0-1,0-2,0-3,0-.28,0-.58-.4-.55-.29,0-.39-.17-.38-.43s0-.56.23-.57c.74,0,.51-.56.55-1s-.21-1,.62-1,.62.6.58,1c-.05.69.16,1,.87.88.25,0,.51,0,.76,0,.42,0,.61.1.6.56s-.21.49-.57.51c-1.64.08-1.64.09-1.64,1.75v1.43C162.47,56.23,162.72,56.46,163.89,56.4Z" transform="translate(-0.51 -0.84)"/><path class="cls-1" d="M187.62,55.54c.6-1.51,1.15-2.88,1.66-4.27a.72.72,0,0,1,.78-.58c.52,0,.65.22.46.68-.72,1.79-1.45,3.57-2.17,5.36-.15.38-.44.37-.75.37s-.61,0-.76-.36c-.72-1.82-1.46-3.64-2.18-5.45-.09-.24-.16-.53.24-.57s.83-.1,1,.45C186.46,52.58,187,54,187.62,55.54Z" transform="translate(-0.51 -0.84)"/><path class="cls-1" d="M143.76,54.09c0-.86,0-1.73,0-2.6,0-.26-.1-.64.32-.64s.85-.28,1,.31c.09.43.27.32.51.16a3.23,3.23,0,0,1,1.82-.51c.68,0,.57.44.59.85s-.23.52-.63.42a2.07,2.07,0,0,0-1.15.1c-.78.24-1.23.62-1.15,1.55s0,2,0,3c0,.49-.12.71-.65.7s-.71-.15-.69-.67C143.79,55.89,143.76,55,143.76,54.09Z" transform="translate(-0.51 -0.84)"/><path class="cls-1" d="M197.78,52.69c0-1.26,0-2.52,0-3.78,0-.49.18-.62.64-.62s.58.16.58.59c0,2.55,0,5.11,0,7.66,0,.45-.17.56-.59.57s-.64-.15-.63-.63C197.8,55.22,197.78,54,197.78,52.69Z" transform="translate(-0.51 -0.84)"/><path class="cls-1" d="M166.5,54.12c0,.92,0,1.85,0,2.77,0,.47-.21.55-.61.55s-.64,0-.63-.53c0-1.84,0-3.69,0-5.53,0-.47.19-.57.6-.56s.65,0,.64.53C166.48,52.28,166.5,53.2,166.5,54.12Z" transform="translate(-0.51 -0.84)"/><path class="cls-1" d="M165.92,49.84c-.5.06-.8,0-.8-.57s.19-.68.68-.66.75,0,.73.6S166.43,50,165.92,49.84Z" transform="translate(-0.51 -0.84)"/></svg>